<svg width="53" height="52" viewBox="0 0 53 52" fill="none" xmlns="http://www.w3.org/2000/svg">
<path d="M4 22.5C2.067 22.5 0.5 24.067 0.5 26C0.5 27.933 2.067 29.5 4 29.5V22.5ZM51.4749 28.4749C52.8417 27.108 52.8417 24.892 51.4749 23.5251L29.201 1.25126C27.8342 -0.115572 25.6181 -0.115572 24.2513 1.25126C22.8844 2.6181 22.8844 4.83418 24.2513 6.20101L44.0503 26L24.2513 45.799C22.8844 47.1658 22.8844 49.3819 24.2513 50.7487C25.6181 52.1156 27.8342 52.1156 29.201 50.7487L51.4749 28.4749ZM4 29.5H49V22.5H4V29.5Z" fill="white" fill-opacity="0.58"/>
</svg>
